<mxfile host="app.diagrams.net" agent="Mozilla/5.0 (Windows NT 10.0; Win64; x64) AppleWebKit/537.36 (KHTML, like Gecko) Chrome/134.0.0.0 Safari/537.36" version="26.2.8">
  <diagram name="Page-1" id="IxElRYdI1R2lsxoraBGJ">
    <mxGraphModel dx="1491" dy="753" grid="1" gridSize="10" guides="1" tooltips="1" connect="1" arrows="1" fold="1" page="1" pageScale="1" pageWidth="850" pageHeight="1100" math="0" shadow="0">
      <root>
        <mxCell id="0" />
        <mxCell id="1" parent="0" />
        <mxCell id="Y6n3DYg3rn1zYoBxxBI1-37" style="edgeStyle=orthogonalEdgeStyle;rounded=0;orthogonalLoop=1;jettySize=auto;html=1;fontStyle=1" parent="1" source="Y6n3DYg3rn1zYoBxxBI1-5" target="Y6n3DYg3rn1zYoBxxBI1-31" edge="1">
          <mxGeometry relative="1" as="geometry" />
        </mxCell>
        <mxCell id="Y6n3DYg3rn1zYoBxxBI1-5" value="ec2" style="outlineConnect=0;dashed=0;verticalLabelPosition=bottom;verticalAlign=top;align=center;html=1;shape=mxgraph.aws3.ec2;fillColor=#F58534;gradientColor=none;fontStyle=1" parent="1" vertex="1">
          <mxGeometry x="320" y="270" width="76.5" height="93" as="geometry" />
        </mxCell>
        <mxCell id="Y6n3DYg3rn1zYoBxxBI1-9" value="Load balancer&lt;div&gt;&lt;br&gt;&lt;/div&gt;" style="outlineConnect=0;dashed=0;verticalLabelPosition=bottom;verticalAlign=top;align=center;html=1;shape=mxgraph.aws3.classic_load_balancer;fillColor=#F58536;gradientColor=none;fontStyle=1" parent="1" vertex="1">
          <mxGeometry x="80" y="410.5" width="69" height="72" as="geometry" />
        </mxCell>
        <mxCell id="Y6n3DYg3rn1zYoBxxBI1-35" style="edgeStyle=orthogonalEdgeStyle;rounded=0;orthogonalLoop=1;jettySize=auto;html=1;exitX=1;exitY=0.5;exitDx=0;exitDy=0;exitPerimeter=0;fontStyle=1" parent="1" source="Y6n3DYg3rn1zYoBxxBI1-26" edge="1">
          <mxGeometry relative="1" as="geometry">
            <mxPoint x="600" y="446.2222222222222" as="targetPoint" />
          </mxGeometry>
        </mxCell>
        <mxCell id="Y6n3DYg3rn1zYoBxxBI1-26" value="ec2" style="outlineConnect=0;dashed=0;verticalLabelPosition=bottom;verticalAlign=top;align=center;html=1;shape=mxgraph.aws3.ec2;fillColor=#F58534;gradientColor=none;fontStyle=1" parent="1" vertex="1">
          <mxGeometry x="320" y="400" width="76.5" height="93" as="geometry" />
        </mxCell>
        <mxCell id="Y6n3DYg3rn1zYoBxxBI1-36" style="edgeStyle=orthogonalEdgeStyle;rounded=0;orthogonalLoop=1;jettySize=auto;html=1;fontStyle=1" parent="1" source="Y6n3DYg3rn1zYoBxxBI1-27" target="Y6n3DYg3rn1zYoBxxBI1-31" edge="1">
          <mxGeometry relative="1" as="geometry" />
        </mxCell>
        <mxCell id="Y6n3DYg3rn1zYoBxxBI1-27" value="ec2" style="outlineConnect=0;dashed=0;verticalLabelPosition=bottom;verticalAlign=top;align=center;html=1;shape=mxgraph.aws3.ec2;fillColor=#F58534;gradientColor=none;fontStyle=1" parent="1" vertex="1">
          <mxGeometry x="320" y="540" width="76.5" height="93" as="geometry" />
        </mxCell>
        <mxCell id="Y6n3DYg3rn1zYoBxxBI1-28" style="edgeStyle=orthogonalEdgeStyle;rounded=0;orthogonalLoop=1;jettySize=auto;html=1;entryX=0;entryY=0.5;entryDx=0;entryDy=0;entryPerimeter=0;fontStyle=1" parent="1" source="Y6n3DYg3rn1zYoBxxBI1-9" target="Y6n3DYg3rn1zYoBxxBI1-5" edge="1">
          <mxGeometry relative="1" as="geometry" />
        </mxCell>
        <mxCell id="Y6n3DYg3rn1zYoBxxBI1-29" style="edgeStyle=orthogonalEdgeStyle;rounded=0;orthogonalLoop=1;jettySize=auto;html=1;entryX=0;entryY=0.5;entryDx=0;entryDy=0;entryPerimeter=0;fontStyle=1" parent="1" source="Y6n3DYg3rn1zYoBxxBI1-9" target="Y6n3DYg3rn1zYoBxxBI1-26" edge="1">
          <mxGeometry relative="1" as="geometry" />
        </mxCell>
        <mxCell id="Y6n3DYg3rn1zYoBxxBI1-30" style="edgeStyle=orthogonalEdgeStyle;rounded=0;orthogonalLoop=1;jettySize=auto;html=1;entryX=0;entryY=0.5;entryDx=0;entryDy=0;entryPerimeter=0;fontStyle=1" parent="1" source="Y6n3DYg3rn1zYoBxxBI1-9" target="Y6n3DYg3rn1zYoBxxBI1-27" edge="1">
          <mxGeometry relative="1" as="geometry" />
        </mxCell>
        <mxCell id="Y6n3DYg3rn1zYoBxxBI1-31" value="Database" style="sketch=0;outlineConnect=0;fontColor=#232F3E;gradientColor=none;fillColor=#C925D1;strokeColor=none;dashed=0;verticalLabelPosition=bottom;verticalAlign=top;align=center;html=1;fontSize=12;fontStyle=1;aspect=fixed;pointerEvents=1;shape=mxgraph.aws4.rds_multi_az_db_cluster;" parent="1" vertex="1">
          <mxGeometry x="610" y="370" width="148" height="148" as="geometry" />
        </mxCell>
        <mxCell id="Y6n3DYg3rn1zYoBxxBI1-42" value="AWS Secret Manager&lt;div&gt;&lt;br&gt;&lt;/div&gt;" style="sketch=0;points=[[0,0,0],[0.25,0,0],[0.5,0,0],[0.75,0,0],[1,0,0],[0,1,0],[0.25,1,0],[0.5,1,0],[0.75,1,0],[1,1,0],[0,0.25,0],[0,0.5,0],[0,0.75,0],[1,0.25,0],[1,0.5,0],[1,0.75,0]];outlineConnect=0;fontColor=#232F3E;fillColor=#DD344C;strokeColor=#ffffff;dashed=0;verticalLabelPosition=bottom;verticalAlign=top;align=center;html=1;fontSize=12;fontStyle=1;aspect=fixed;shape=mxgraph.aws4.resourceIcon;resIcon=mxgraph.aws4.secrets_manager;" parent="1" vertex="1">
          <mxGeometry x="110" y="230" width="78" height="78" as="geometry" />
        </mxCell>
        <mxCell id="Y6n3DYg3rn1zYoBxxBI1-43" style="edgeStyle=orthogonalEdgeStyle;rounded=0;orthogonalLoop=1;jettySize=auto;html=1;exitX=0;exitY=0.21;exitDx=0;exitDy=0;exitPerimeter=0;entryX=1;entryY=0.5;entryDx=0;entryDy=0;entryPerimeter=0;fontStyle=1" parent="1" source="Y6n3DYg3rn1zYoBxxBI1-5" target="Y6n3DYg3rn1zYoBxxBI1-42" edge="1">
          <mxGeometry relative="1" as="geometry" />
        </mxCell>
        <mxCell id="Y6n3DYg3rn1zYoBxxBI1-44" value="Authentication Service" style="text;html=1;align=center;verticalAlign=middle;whiteSpace=wrap;rounded=0;fontSize=24;fontStyle=1" parent="1" vertex="1">
          <mxGeometry x="200" y="70" width="380" height="50" as="geometry" />
        </mxCell>
        <mxCell id="Y6n3DYg3rn1zYoBxxBI1-46" value="&lt;pre style=&quot;line-height: 20%;&quot;&gt;&lt;pre&gt;Endpoints /auth&lt;/pre&gt;&lt;pre&gt;1-[POST] /register&lt;/pre&gt;&lt;pre&gt;2-[GET] /verify-email&lt;/pre&gt;&lt;pre&gt;3-[POST] /login&lt;/pre&gt;&lt;pre&gt;4-[POST] /logout&lt;/pre&gt;&lt;pre&gt;5-[POST] /refresh-token&lt;/pre&gt;&lt;pre&gt;6-[GET] /validate&lt;/pre&gt;&lt;/pre&gt;" style="text;html=1;align=left;verticalAlign=middle;whiteSpace=wrap;rounded=0;fontSize=16;" parent="1" vertex="1">
          <mxGeometry x="310" y="100" width="330" height="180" as="geometry" />
        </mxCell>
      </root>
    </mxGraphModel>
  </diagram>
</mxfile>
